<svg width="32" height="32" viewBox="0 0 32 32" fill="none" xmlns="http://www.w3.org/2000/svg">
<g clip-path="url(#clip0_101_40)">
<path d="M12.1325 12.065C12.1325 10.275 10.915 10.275 10.915 10.275H5.91501V14.1125H10.605C11.415 14.1125 12.1325 13.8525 12.1325 12.065ZM10.915 16.765H5.91501V21.36H10.69C11.4075 21.34 12.735 21.11 12.735 19.125C12.7275 16.75 10.915 16.765 10.915 16.765ZM23.7325 14.1125C21.075 14.1125 20.705 16.7625 20.705 16.7625H26.355C26.355 16.7625 26.39 14.1125 23.7325 14.1125Z" fill="white"/>
<path d="M27.8125 0.540009H4.18751C3.22013 0.540009 2.29238 0.924298 1.60834 1.60834C0.924298 2.29238 0.540009 3.22013 0.540009 4.18751V27.81C0.540009 28.7774 0.924298 29.7051 1.60834 30.3892C2.29238 31.0732 3.22013 31.4575 4.18751 31.4575H27.81C28.7774 31.4575 29.7051 31.0732 30.3892 30.3892C31.0732 29.7051 31.4575 28.7774 31.4575 27.81V4.18751C31.4575 3.22056 31.0736 2.29319 30.3901 1.60922C29.7066 0.925253 28.7795 0.540671 27.8125 0.540009ZM19.965 8.23001H27.06V10.35H19.965V8.23001ZM16.3775 19.34C16.3775 24.59 10.915 24.4175 10.915 24.4175H1.96501V7.21751H10.915C13.635 7.21751 15.7825 8.71751 15.7825 11.7975C15.7825 14.8775 13.1575 15.07 13.1575 15.07C16.6175 15.07 16.3775 19.34 16.3775 19.34ZM29.65 19.06H20.75C20.75 22.255 23.7775 22.06 23.7775 22.06C26.635 22.06 26.5275 20.21 26.5275 20.21H29.55C29.55 25.12 23.665 24.7825 23.665 24.7825C16.6025 24.7825 17.0575 18.2075 17.0575 18.2075C17.0575 18.2075 17.0575 11.6 23.665 11.6C30.6275 11.595 29.6525 19.06 29.6525 19.06H29.65Z" fill="white"/>
</g>
<defs>
<clipPath id="clip0_101_40">
<rect width="32" height="32" fill="white"/>
</clipPath>
</defs>
</svg>
