<svg width="42" height="32" viewBox="0 0 42 32" fill="none" xmlns="http://www.w3.org/2000/svg">
<path d="M6.6 30C5.61 30 4.7628 29.6576 4.0584 28.9727C3.354 28.2879 3.0012 27.4637 3 26.5V5.5C3 4.5375 3.3528 3.71383 4.0584 3.029C4.764 2.34417 5.6112 2.00117 6.6 2H35.4C36.39 2 37.2378 2.343 37.9434 3.029C38.649 3.715 39.0012 4.53867 39 5.5V26.5C39 27.4625 38.6478 28.2867 37.9434 28.9727C37.239 29.6587 36.3912 30.0012 35.4 30H6.6ZM21 17.75L35.4 9V5.5L21 14.25L6.6 5.5V9L21 17.75Z" fill="white"/>
</svg>
